<svg width="30" height="30" viewBox="0 0 30 30" fill="none" xmlns="http://www.w3.org/2000/svg">
<g clip-path="url(#clip0)">
<path d="M29.9409 17.3388C29.7584 16.8423 29.207 16.5884 28.7118 16.7712L16.214 21.3712C15.4345 20.2292 14.0848 19.6029 12.7106 19.7433L6.93073 4.04009L1.16902 2.73318C0.655292 2.61578 0.140636 2.93931 0.0238712 3.4549C-0.0928935 3.97048 0.229999 4.48357 0.745586 4.60034L5.49333 5.67749L10.9169 20.413C9.54739 21.3753 8.93543 23.1675 9.54136 24.8123C10.2634 26.7736 12.4385 27.7789 14.4001 27.0569C16.0395 26.4532 17.0063 24.834 16.8595 23.1735L29.3733 18.5681C29.8691 18.385 30.1234 17.8349 29.9409 17.3388ZM13.7945 25.4118C12.7416 25.7998 11.5735 25.2596 11.1858 24.207C10.7985 23.1534 11.3377 21.986 12.3909 21.598C13.4439 21.2104 14.6123 21.7502 14.9999 22.8028C15.3876 23.856 14.8474 25.0238 13.7945 25.4118Z" fill="black"/>
<path d="M27.3874 14.5058L23.3755 3.60484L18.3808 5.44332L19.4848 8.44224L17.4718 9.18278L16.3681 6.1842L11.3734 8.02234L15.3854 18.9233L27.3874 14.5058ZM24.631 12.5005L25.0716 13.6983L20.6124 15.3395L20.1717 14.1417L24.631 12.5005Z" fill="black"/>
</g>
<defs>
<clipPath id="clip0">
<rect width="30" height="30" fill="white"/>
</clipPath>
</defs>
</svg>
