<svg width="29" height="26" viewBox="0 0 29 26" fill="none" xmlns="http://www.w3.org/2000/svg">
<path d="M0.34 8.567C0.39 8.523 0.442 8.479 0.5 8.444L13.589 0.885997C13.899 0.706997 14.279 0.706997 14.589 0.885997L27.678 8.444C27.739 8.478 27.787 8.523 27.838 8.567L14.089 16.505L0.34 8.567ZM14.589 18.527C14.435 18.616 14.262 18.661 14.089 18.661C13.916 18.661 13.742 18.617 13.589 18.527L0 10.68V24.425C0 24.979 0.447 25.425 1 25.425H27.178C27.731 25.425 28.178 24.979 28.178 24.425V10.68L14.589 18.527Z" fill="black"/>
</svg>
