<svg width="16" height="16" viewBox="0 0 16 16" fill="none" xmlns="http://www.w3.org/2000/svg">
<path d="M15.6752 14.112L12.2941 10.7303C13.1159 9.58717 13.5677 8.22121 13.5677 6.78335C13.5677 4.97221 12.8626 3.26891 11.5801 1.98756C10.3004 0.706761 8.59603 0 6.78378 0C4.97208 0 3.26822 0.705102 1.98743 1.98756C0.706631 3.2678 0.000976562 4.97166 0.000976562 6.78335C0.000976562 8.59505 0.706078 10.2984 1.98743 11.5803C3.26822 12.8611 4.97153 13.5678 6.78378 13.5678C8.22108 13.5678 9.58594 13.1182 10.7301 12.2942L14.1113 15.6759C14.3281 15.8922 14.6101 16 14.8933 16C15.177 16 15.4596 15.8922 15.6752 15.6759C16.1072 15.2435 16.1072 14.5439 15.6752 14.112ZM3.55192 10.0158C2.68811 9.15194 2.21306 8.00332 2.21306 6.7828C2.21306 5.56228 2.68811 4.41477 3.55192 3.55095C4.41519 2.68713 5.56271 2.21153 6.78378 2.21153C8.00485 2.21153 9.15292 2.68713 10.0162 3.55095C10.88 4.41477 11.3556 5.56284 11.3556 6.78335C11.3556 8.00387 10.8806 9.15194 10.0162 10.0163C9.15237 10.8801 8.0054 11.3546 6.78378 11.3546C5.56215 11.3546 4.41408 10.879 3.55192 10.0158Z" fill="white"/>
</svg>
