<svg width="42" height="42" viewBox="0 0 42 42" fill="none" xmlns="http://www.w3.org/2000/svg">
<g clip-path="url(#clip0)">
<path d="M7.87926 12.485H10.8341C11.5504 12.485 12.1566 13.032 12.2754 13.7778L14.7511 29.3356C14.8196 29.8532 15.258 30.2419 15.7801 30.2481H16.4186C16.6159 31.1442 17.4123 31.8621 18.3623 31.8621C19.3125 31.8621 20.1089 31.1442 20.306 30.2481H25.3612C25.5584 31.1442 26.3548 31.8584 27.3048 31.8584C28.4027 31.8584 29.2959 30.9331 29.2959 29.798C29.2959 28.6629 28.4027 27.7424 27.3048 27.7424C26.339 27.7424 25.5316 28.4564 25.3517 29.4052H20.3157C20.1355 28.4564 19.3284 27.7448 18.3623 27.7448C17.3964 27.7448 16.5893 28.456 16.4092 29.4048H15.7917C15.6858 29.4017 15.5983 29.3218 15.5856 29.2168C15.5852 29.2141 15.5848 29.2211 15.5843 29.2186L15.1343 26.4003H27.7094C28.6786 26.3991 29.5176 25.7266 29.7301 24.7809L31.6375 16.4962C31.6664 16.3686 31.6367 16.2346 31.5566 16.131C31.4773 16.0282 31.3561 15.9669 31.2266 15.9638H13.4782L13.1082 13.6398C12.9239 12.4823 11.9676 11.6416 10.8341 11.6416H7.87926C7.64639 11.6416 7.45758 11.8304 7.45758 12.0633C7.45758 12.2961 7.64639 12.485 7.87926 12.485ZM27.3048 28.581C27.9378 28.581 28.4525 29.1262 28.4525 29.7962C28.4525 30.4664 27.9378 31.0116 27.3048 31.0116C26.6721 31.0116 26.1574 30.4664 26.1574 29.7962C26.1574 29.126 26.6721 28.581 27.3048 28.581ZM18.3623 28.581C18.9952 28.581 19.51 29.1262 19.51 29.7962C19.51 30.4664 18.9952 31.0116 18.3623 31.0116C17.7296 31.0116 17.2146 30.4664 17.2146 29.7962C17.2146 29.126 17.7296 28.581 18.3623 28.581ZM30.6966 16.8072L28.9082 24.5864C28.7832 25.1495 28.2861 25.5518 27.7094 25.557H15L13.6125 16.8072H30.6966Z" fill="#3CAA37"/>
<path d="M21.9002 13.6385C22.0643 13.7999 22.3276 13.7999 22.4917 13.6385L24.0119 12.142C24.1778 11.9786 24.1801 11.7117 24.0166 11.5458C23.8519 11.3798 23.584 11.3775 23.4166 11.541L22.6099 12.3311V9.05791C22.6099 8.82504 22.4211 8.63623 22.1883 8.63623C21.9554 8.63623 21.7666 8.82504 21.7666 9.05791V12.3311L20.9677 11.541C20.8608 11.4331 20.7044 11.3913 20.558 11.4313C20.4116 11.4714 20.2979 11.5871 20.2609 11.7344C20.2238 11.8816 20.2689 12.0372 20.379 12.1418L21.9002 13.6385Z" fill="#3CAA37"/>
<path d="M22.1958 15.1548C24.381 15.1548 26.1526 13.3832 26.1526 11.1981C26.1526 9.01287 24.3812 7.24133 22.196 7.24133C20.0107 7.24133 18.2393 9.01287 18.2393 11.1981C18.2416 13.3822 20.0117 15.1523 22.1958 15.1548ZM22.1958 8.08469C23.9153 8.08469 25.3092 9.47861 25.3092 11.1981C25.3092 12.9175 23.9155 14.3114 22.1958 14.3114C20.4764 14.3114 19.0825 12.9175 19.0827 11.1981C19.0845 9.47944 20.4772 8.08675 22.1958 8.08469Z" fill="#3CAA37"/>
</g>
<circle cx="21" cy="21" r="20.5" stroke="#3CAA37"/>
<defs>
<clipPath id="clip0">
<rect width="24.6207" height="24.6207" fill="white" transform="translate(7.24139 7.24133)"/>
</clipPath>
</defs>
</svg>
