<svg width="32" height="32" viewBox="0 0 32 32" fill="none" xmlns="http://www.w3.org/2000/svg">
<g filter="url(#filter0_d)">
<circle cx="14" cy="14" r="12" fill="white"/>
</g>
<g clip-path="url(#clip0)">
<path d="M21.1716 15.1226C21.084 14.8843 20.8193 14.7624 20.5816 14.8502L14.5826 17.0582C14.2085 16.51 13.5607 16.2094 12.901 16.2768L10.1267 8.73925L7.36106 8.11193C7.11447 8.05558 6.86743 8.21088 6.81138 8.45836C6.75534 8.70584 6.91033 8.95212 7.15781 9.00817L9.43672 9.5252L12.04 16.5982C11.3827 17.0601 11.0889 17.9204 11.3798 18.7099C11.7264 19.6513 12.7704 20.1339 13.712 19.7873C14.4989 19.4976 14.9629 18.7203 14.8925 17.9233L20.8991 15.7127C21.1371 15.6248 21.2592 15.3608 21.1716 15.1226ZM13.4213 18.9977C12.9159 19.1839 12.3552 18.9246 12.1691 18.4194C11.9832 17.9137 12.242 17.3533 12.7476 17.167C13.253 16.981 13.8138 17.2401 13.9999 17.7454C14.186 18.2509 13.9267 18.8114 13.4213 18.9977Z" fill="black"/>
<path d="M19.9459 13.7628L18.0202 8.53034L15.6227 9.41281L16.1526 10.8523L15.1864 11.2077L14.6566 9.76843L12.2592 10.6507L14.1849 15.8832L19.9459 13.7628ZM18.6228 12.8002L18.8343 13.3752L16.6939 14.163L16.4824 13.5881L18.6228 12.8002Z" fill="black"/>
</g>
<defs>
<filter id="filter0_d" x="0" y="0" width="32" height="32" filterUnits="userSpaceOnUse" color-interpolation-filters="sRGB">
<feFlood flood-opacity="0" result="BackgroundImageFix"/>
<feColorMatrix in="SourceAlpha" type="matrix" values="0 0 0 0 0 0 0 0 0 0 0 0 0 0 0 0 0 0 127 0"/>
<feOffset dx="2" dy="2"/>
<feGaussianBlur stdDeviation="2"/>
<feColorMatrix type="matrix" values="0 0 0 0 0 0 0 0 0 0 0 0 0 0 0 0 0 0 0.25 0"/>
<feBlend mode="normal" in2="BackgroundImageFix" result="effect1_dropShadow"/>
<feBlend mode="normal" in="SourceGraphic" in2="effect1_dropShadow" result="shape"/>
</filter>
<clipPath id="clip0">
<rect width="14.4" height="14.4" fill="white" transform="translate(6.79993 6.8)"/>
</clipPath>
</defs>
</svg>
