<svg width="26" height="29" viewBox="0 0 26 29" fill="none" xmlns="http://www.w3.org/2000/svg">
<path d="M23.8322 20.6032C22.9557 19.8078 21.0851 18.2665 19.6735 18.3125C19.2114 18.3275 18.8091 18.5102 18.4438 18.7337V18.7333C18.4438 18.7333 18.4276 18.7437 18.4006 18.7611C18.3191 18.8121 18.2388 18.8654 18.1616 18.9206L18.1623 18.9213C17.9095 19.097 17.5118 19.3874 17.0627 19.7723L17.0585 19.7681C17.0438 19.7804 17.0284 19.7935 17.0133 19.8055C16.9199 19.8854 16.8249 19.9746 16.7292 20.0673C16.7257 20.0704 16.7222 20.0727 16.7199 20.0758C16.7145 20.08 16.7118 20.0843 16.7072 20.0889C16.1828 20.5989 15.6207 21.2302 14.9025 21.2966C13.5825 21.4175 12.3161 20.3464 11.6331 19.7202C10.0945 18.3109 8.70762 16.5978 7.60879 14.699C7.0864 13.7975 6.43931 12.5562 6.84509 11.3071C7.04664 10.6832 7.65165 10.321 8.20531 9.95928C8.20686 9.95889 8.20724 9.95812 8.20801 9.95812C8.62037 9.71372 9.12268 9.31874 9.46398 9.03728C10.0458 8.56663 10.7049 7.97551 10.8111 7.11684C10.9694 5.857 10.1134 4.13965 9.44121 3.00182C8.83774 1.98098 7.79064 0.235443 6.52579 0.0261787C5.93854 -0.0711175 5.44781 0.180617 5.0123 0.51961C4.7177 0.73621 3.90227 1.3474 3.20343 1.96824C3.17988 1.98793 3.1571 2.00801 3.13471 2.02809C3.02737 2.12538 2.9212 2.22268 2.82236 2.31805C2.82236 2.3192 2.82236 2.31959 2.82236 2.31959C1.25712 3.83347 -0.0158365 5.96666 -6.52914e-06 8.94771C0.0227732 13.045 2.00962 16.2777 3.80613 18.8217C5.70997 21.5178 8.17828 24.2827 11.0678 26.256C12.6782 27.3552 14.2875 28.2448 16.6828 28.573C19.306 28.9328 21.1781 28.2653 22.8102 27.1483C22.8198 27.1417 22.8283 27.1382 22.8376 27.1321C23.7642 26.5139 24.5268 25.8776 24.9634 25.4939C25.0908 25.3881 25.2167 25.2765 25.3345 25.1568C25.3491 25.1429 25.36 25.1325 25.36 25.1325L25.3588 25.1309C25.6121 24.8676 25.8453 24.5661 25.9144 24.1661C26.1279 22.9414 24.7086 21.4016 23.8322 20.6032Z" fill="black"/>
</svg>
